<?xml version="1.0" standalone="no"?>
<!DOCTYPE svg PUBLIC "-//W3C//DTD SVG 20010904//EN"
 "http://www.w3.org/TR/2001/REC-SVG-20010904/DTD/svg10.dtd">
<svg version="1.0" xmlns="http://www.w3.org/2000/svg"
 width="64px" height="64px" viewBox="0 0 512.000000 512.000000"
 preserveAspectRatio="xMidYMid meet">

<g transform="translate(0.000000,512.000000) scale(0.100000,-0.100000)"
fill="#000000" stroke="none">
<path d="M2490 4823 c-300 -11 -714 -94 -1075 -216 -676 -229 -1193 -574
-1350 -902 -66 -138 -65 -107 -65 -1083 0 -995 -3 -955 76 -1119 184 -383 739
-771 1449 -1011 756 -256 1314 -256 2070 0 594 201 1103 519 1347 842 34 45
80 122 104 171 77 163 74 124 74 1117 0 757 -2 892 -16 948 -68 289 -373 574
-885 825 -555 272 -1252 444 -1729 428z m240 -263 c391 -35 821 -158 1205
-345 359 -175 582 -363 684 -575 31 -65 36 -86 39 -166 6 -136 -32 -249 -133
-389 -295 -412 -1135 -808 -1837 -866 -229 -19 -469 8 -764 86 -522 137 -980
381 -1245 663 -97 104 -159 201 -195 310 -23 66 -26 90 -22 172 3 81 8 105 36
164 18 38 52 97 76 130 236 331 943 672 1636 791 195 33 345 40 520 25z"/>
<path d="M2465 3984 c-442 -68 -834 -261 -935 -461 -98 -193 84 -424 463 -587
423 -182 760 -173 1192 34 334 160 497 384 407 560 -92 177 -427 360 -791 431
-104 20 -277 32 -336 23z"/>
</g>
</svg>
